<?xml version="1.0" encoding="iso-8859-1"?>
<!-- Generator: Adobe Illustrator 19.0.0, SVG Export Plug-In . SVG Version: 6.00 Build 0)  -->
<svg version="1.1" id="Layer_1" xmlns="http://www.w3.org/2000/svg" xmlns:xlink="http://www.w3.org/1999/xlink" x="0px" y="0px"
	 viewBox="0 0 512 512" style="enable-background:new 0 0 512 512;" xml:space="preserve">
<g>
	<path style="fill:#FB7B76;" d="M253.241,105.931c24.638,0,59.162,1.624,77.798,0C282.99,89.053,251.591,0,251.591,0
		s-31.409,89.053-79.448,105.931C190.769,107.555,228.604,105.931,253.241,105.931"/>
	<polygon style="fill:#EFE7D5;" points="92.69,476.69 428.138,476.69 428.138,229.517 92.69,229.517 	"/>
	<polygon style="fill:#554658;" points="57.379,512 463.448,512 463.448,476.69 57.379,476.69 	"/>
	<path style="fill:#A85656;" d="M251.586,167.724h142.76c15.987,0,31.311-6.347,42.62-17.655c0,0-50.388,22.069-105.931-44.138
		h-79.448h-79.448c-55.543,66.207-105.931,44.138-105.931,44.138c11.308,11.308,26.633,17.655,42.62,17.655H251.586z"/>
	<path style="fill:#FB7B76;" d="M251.586,229.517h195.725c15.987,0,31.311-6.347,42.62-17.655c0,0-50.388,22.069-105.931-44.138
		H251.586H128c-55.543,66.207-105.931,44.138-105.931,44.138c11.308,11.308,26.633,17.655,42.62,17.655H251.586z"/>
	<g>
		<path style="fill:#CBB292;" d="M225.103,476.69h-88.276V300.765c24.373-24.373,63.903-24.373,88.276,0V476.69z"/>
		<path style="fill:#CBB292;" d="M384,476.69h-88.276V300.765c24.373-24.373,63.903-24.373,88.276,0V476.69z"/>
	</g>
</g>
<g>
</g>
<g>
</g>
<g>
</g>
<g>
</g>
<g>
</g>
<g>
</g>
<g>
</g>
<g>
</g>
<g>
</g>
<g>
</g>
<g>
</g>
<g>
</g>
<g>
</g>
<g>
</g>
<g>
</g>
</svg>
