<?xml version="1.0" encoding="iso-8859-1"?>
<!-- Generator: Adobe Illustrator 19.0.0, SVG Export Plug-In . SVG Version: 6.00 Build 0)  -->
<svg version="1.1" id="Capa_1" xmlns="http://www.w3.org/2000/svg" xmlns:xlink="http://www.w3.org/1999/xlink" x="0px" y="0px"
	 viewBox="0 0 60 60" style="enable-background:new 0 0 60 60;" xml:space="preserve">
<g>
	<path d="M4,33.271V52.5h7h9h5h9h6h9h7V33.271c1.391-0.338,2.687-1.044,3.707-2.064c0.241-0.241,0.343-0.588,0.27-0.921
		s-0.311-0.606-0.63-0.725l-5.076-1.874c-2.393-0.884-4.497-2.32-6.188-4.188h1.089c2.061,0,4.078-0.836,5.535-2.293
		c0.241-0.241,0.343-0.588,0.27-0.921s-0.311-0.606-0.63-0.725l-5.076-1.874c-2.393-0.884-4.497-2.32-6.188-4.188h3.089
		c2.061,0,4.078-0.836,5.535-2.293c0.241-0.241,0.343-0.588,0.27-0.921s-0.311-0.606-0.63-0.725l-5.076-1.874
		c-3.028-1.118-5.604-3.109-7.45-5.759C38.634,1.66,38.327,1.5,38,1.5H20c-0.314,0-0.61,0.148-0.8,0.399l-0.392,0.522
		c-1.603,2.138-3.742,3.843-6.188,4.93L7.594,9.586C7.293,9.72,7.077,9.993,7.017,10.317c-0.06,0.324,0.043,0.657,0.276,0.89
		c1.457,1.457,3.475,2.293,5.535,2.293h2.084c-1.471,1.633-3.274,2.955-5.291,3.852l-5.027,2.234
		c-0.301,0.134-0.517,0.407-0.577,0.731c-0.06,0.324,0.043,0.657,0.276,0.89C5.75,22.664,7.768,23.5,9.828,23.5h1.084
		c-1.471,1.633-3.274,2.955-5.291,3.852l-5.027,2.234c-0.301,0.134-0.517,0.407-0.577,0.731c-0.06,0.324,0.043,0.657,0.276,0.89
		C1.312,32.227,2.609,32.933,4,33.271z M12,50.5v-9.771C12,39.5,13,38.5,14.23,38.5h2.541C18,38.5,19,39.5,19,40.729V50.5H12z
		 M26,50.5v-9.771C26,39.5,27,38.5,28.23,38.5h2.541C32,38.5,33,39.5,33,40.729V50.5H26z M41,50.5v-9.771
		C41,39.5,42,38.5,43.23,38.5h2.541C47,38.5,48,39.5,48,40.729V50.5H41z M54,50.5h-4v-9.771c0-2.332-1.897-4.229-4.229-4.229H43.23
		C40.897,36.5,39,38.397,39,40.729V50.5h-4v-9.771c0-2.332-1.897-4.229-4.229-4.229H28.23C25.897,36.5,24,38.397,24,40.729V50.5h-3
		v-9.771c0-2.332-1.897-4.229-4.229-4.229H14.23C11.897,36.5,10,38.397,10,40.729V50.5H6v-17h48V50.5z M9.941,10.731l3.492-1.552
		c2.756-1.226,5.168-3.148,6.975-5.558L20.5,3.5h16.987c2.056,2.773,4.842,4.864,8.09,6.064l3.354,1.237
		c-0.843,0.452-1.795,0.698-2.759,0.698H41H17h-4.172C11.814,11.5,10.815,11.229,9.941,10.731z M6.941,20.731l3.492-1.552
		c2.756-1.226,5.168-3.148,6.975-5.558L17.5,13.5h22.987c2.056,2.773,4.842,4.864,8.09,6.064l3.354,1.237
		c-0.843,0.452-1.795,0.698-2.759,0.698H46H13H9.828C8.814,21.5,7.815,21.229,6.941,20.731z M6.434,29.18
		c2.756-1.226,5.168-3.148,6.975-5.558L13.5,23.5h31.987c2.056,2.773,4.842,4.864,8.09,6.064l3.354,1.237
		c-0.843,0.452-1.795,0.698-2.759,0.698H5.828c-1.014,0-2.013-0.271-2.887-0.769L6.434,29.18z"/>
	<path d="M3,53.5c-0.553,0-1,0.447-1,1s0.447,1,1,1h54c0.553,0,1-0.447,1-1s-0.447-1-1-1H3z"/>
	<path d="M59,56.5H1c-0.553,0-1,0.447-1,1s0.447,1,1,1h58c0.553,0,1-0.447,1-1S59.553,56.5,59,56.5z"/>
</g>
<g>
</g>
<g>
</g>
<g>
</g>
<g>
</g>
<g>
</g>
<g>
</g>
<g>
</g>
<g>
</g>
<g>
</g>
<g>
</g>
<g>
</g>
<g>
</g>
<g>
</g>
<g>
</g>
<g>
</g>
</svg>
